<svg aria-hidden="true" style="position:absolute;width:0;height:0" xmlns="http://www.w3.org/2000/svg" overflow="hidden"><defs><symbol id="icon-ask" viewBox="0 0 32 32"><path d="M16.05 30.947c-8.446 0-15.293-6.836-15.293-15.27S7.604.407 16.05.407c8.446 0 15.293 6.836 15.293 15.27-.014 8.428-6.852 15.256-15.293 15.27zm0-28.798c-7.483 0-13.549 6.057-13.549 13.529S8.567 29.207 16.05 29.207s13.549-6.057 13.549-13.529C29.59 8.21 23.529 2.158 16.05 2.149z"/><path d="M16.227 21.623a1.33 1.33 0 01.952 2.265 1.332 1.332 0 01-2.274-.936 1.336 1.336 0 011.322-1.328zM17.078 19.848v-.891a3.055 3.055 0 01.168-1.068c.109-.293.256-.57.438-.824.19-.271.404-.524.64-.757.236-.244.48-.471.724-.706s.488-.496.724-.757c.24-.257.451-.539.632-.841.438-.7.664-1.512.648-2.338a5.05 5.05 0 00-.354-1.951 4.018 4.018 0 00-.994-1.429 4.429 4.429 0 00-1.533-.9 6.052 6.052 0 00-1.962-.311 5.496 5.496 0 00-2.156.412 4.584 4.584 0 00-1.642 1.169c-.454.512-.8 1.11-1.019 1.757a5.955 5.955 0 00-.337 2.178.976.976 0 001.954 0 5.534 5.534 0 01.185-1.488 3.24 3.24 0 01.581-1.194c.269-.35.611-.637 1.002-.841a3.22 3.22 0 011.423-.294 2.69 2.69 0 011.962.706c.52.529.821 1.235.842 1.976a3.47 3.47 0 01-.202 1.446 4.076 4.076 0 01-.682 1.085c-.286.332-.593.647-.918.942-.333.306-.648.632-.943.975a5.613 5.613 0 00-.758 1.202 4.443 4.443 0 00-.345 1.64v1.093a.976.976 0 001.954 0z"/></symbol><symbol id="icon-Cart-Empty" viewBox="0 0 38 32"><path d="M9.302 4.65l3.417 17.176 18.549-1.091L35.01 4.451H22.125L9.302 4.65zm2.875 18.541a.666.666 0 01-.652-.536L7.877 4.316 5.042 1.332H.666a.666.666 0 010-1.331h4.662c.183 0 .358.075.483.207l2.963 3.118 13.341-.206h13.731a.665.665 0 01.649.816l-4.041 17.585a.663.663 0 01-.609.515l-19.627 1.155-.041.001z"/><path d="M32.472 25.9H12.267a.667.667 0 01-.666-.666v-2.709a.666.666 0 011.332 0v2.042h19.539a.667.667 0 010 1.332zM15.908 28.997a2.598 2.598 0 11-5.197 0 2.598 2.598 0 015.197 0zM33.404 28.997a2.598 2.598 0 11-5.197 0 2.598 2.598 0 015.197 0z"/></symbol><symbol id="icon-people" viewBox="0 0 26 32"><path d="M12.294 15.417A7.287 7.287 0 1112.296.843a7.287 7.287 0 01-.003 14.574zm0-12.955a5.668 5.668 0 105.668 5.668 5.669 5.669 0 00-5.668-5.708v.041zM22.23 31.198H2.36a2.337 2.337 0 01-1.733-.745 1.992 1.992 0 01-.526-1.498c.656-7.158 5.895-12.559 12.194-12.559s11.538 5.36 12.194 12.559a1.993 1.993 0 01-.526 1.538 2.339 2.339 0 01-1.733.704zm-9.936-13.222c-5.457 0-10.008 4.769-10.583 11.085a.39.39 0 00.113.3c.14.144.334.223.534.219h19.87a.718.718 0 00.534-.219.39.39 0 00.113-.3c-.575-6.316-5.125-11.085-10.583-11.085z"/></symbol></defs></svg>